<?xml version="1.0" encoding="UTF-8" standalone="no"?>
<!-- Created with Inkscape (http://www.inkscape.org/) -->

<svg
   xmlns:osb="http://www.openswatchbook.org/uri/2009/osb"
   xmlns:dc="http://purl.org/dc/elements/1.1/"
   xmlns:cc="http://creativecommons.org/ns#"
   xmlns:rdf="http://www.w3.org/1999/02/22-rdf-syntax-ns#"
   xmlns:svg="http://www.w3.org/2000/svg"
   xmlns="http://www.w3.org/2000/svg"
   xmlns:xlink="http://www.w3.org/1999/xlink"
   xmlns:sodipodi="http://sodipodi.sourceforge.net/DTD/sodipodi-0.dtd"
   xmlns:inkscape="http://www.inkscape.org/namespaces/inkscape"
   inkscape:version="0.91 r13725"
   version="1.1"
   id="svg2"
   height="3000"
   width="3000"
   sodipodi:docname="pmk_logo_white.svg"
   inkscape:export-filename="/home/podvintsev_ss/Dropbox/develop/pmk/pmk_logo_2014_last.png"
   inkscape:export-xdpi="90"
   inkscape:export-ydpi="90"
   style="enable-background:new">
  <sodipodi:namedview
     id="base"
     pagecolor="#285cd0"
     bordercolor="#666666"
     borderopacity="1.0"
     inkscape:pageopacity="0.0"
     inkscape:pageshadow="2"
     inkscape:zoom="0.21446799"
     inkscape:cx="1411.4558"
     inkscape:cy="1345.8627"
     inkscape:document-units="px"
     inkscape:current-layer="layer4"
     showgrid="true"
     inkscape:window-width="1920"
     inkscape:window-height="1022"
     inkscape:window-x="0"
     inkscape:window-y="0"
     inkscape:window-maximized="1"
     inkscape:snap-grids="true"
     showguides="true"
     inkscape:guide-bbox="true">
    <inkscape:grid
       type="xygrid"
       id="grid7634" />
  </sodipodi:namedview>
  <defs
     id="defs4">
    <linearGradient
       id="linearGradient7593">
      <stop
         id="stop7595"
         offset="0"
         style="stop-color:#6f6868;stop-opacity:1;" />
      <stop
         id="stop7597"
         offset="1"
         style="stop-color:#285cd0;stop-opacity:1;" />
    </linearGradient>
    <linearGradient
       id="linearGradient7549"
       osb:paint="solid">
      <stop
         style="stop-color:#285cd0;stop-opacity:1;"
         offset="0"
         id="stop7551" />
    </linearGradient>
    <linearGradient
       id="linearGradient7523"
       osb:paint="gradient">
      <stop
         style="stop-color:#cbc8c8;stop-opacity:1;"
         offset="0"
         id="stop7525" />
      <stop
         style="stop-color:#cbc8c8;stop-opacity:0;"
         offset="1"
         id="stop7527" />
    </linearGradient>
    <linearGradient
       id="linearGradient7493">
      <stop
         style="stop-color:#adadad;stop-opacity:1;"
         offset="0"
         id="stop7495" />
      <stop
         style="stop-color:#285cd0;stop-opacity:1;"
         offset="1"
         id="stop7497" />
    </linearGradient>
    <linearGradient
       id="linearGradient7459"
       osb:paint="solid">
      <stop
         style="stop-color:#000000;stop-opacity:1;"
         offset="0"
         id="stop7461" />
    </linearGradient>
    <linearGradient
       id="linearGradient7439"
       osb:paint="solid">
      <stop
         style="stop-color:#285cd0;stop-opacity:1;"
         offset="0"
         id="stop7441" />
    </linearGradient>
    <linearGradient
       id="linearGradient7403"
       osb:paint="solid">
      <stop
         style="stop-color:#000000;stop-opacity:1;"
         offset="0"
         id="stop7405" />
    </linearGradient>
    <linearGradient
       id="linearGradient6999"
       osb:paint="solid">
      <stop
         style="stop-color:#000000;stop-opacity:1;"
         offset="0"
         id="stop7001" />
    </linearGradient>
    <linearGradient
       id="linearGradient6878"
       osb:paint="solid">
      <stop
         style="stop-color:#f2f2f2;stop-opacity:1;"
         offset="0"
         id="stop6880" />
    </linearGradient>
    <linearGradient
       id="linearGradient6846"
       osb:paint="solid">
      <stop
         style="stop-color:#000000;stop-opacity:1;"
         offset="0"
         id="stop6848" />
    </linearGradient>
    <marker
       inkscape:stockid="Arrow1Lstart"
       orient="auto"
       refY="0"
       refX="0"
       id="Arrow1Lstart"
       style="overflow:visible">
      <path
         id="path5439"
         d="M 0,0 5,-5 -12.5,0 5,5 0,0 Z"
         style="fill-rule:evenodd;stroke:#000000;stroke-width:1pt"
         transform="matrix(0.8,0,0,0.8,10,0)"
         inkscape:connector-curvature="0" />
    </marker>
    <linearGradient
       id="linearGradient5390">
      <stop
         style="stop-color:#000000;stop-opacity:1;"
         offset="0"
         id="stop5392" />
      <stop
         style="stop-color:#000000;stop-opacity:0;"
         offset="1"
         id="stop5394" />
    </linearGradient>
    <linearGradient
       id="linearGradient5378">
      <stop
         style="stop-color:#000000;stop-opacity:1;"
         offset="0"
         id="stop5380" />
      <stop
         style="stop-color:#000000;stop-opacity:0;"
         offset="1"
         id="stop5382" />
    </linearGradient>
    <linearGradient
       id="linearGradient5368"
       osb:paint="solid">
      <stop
         style="stop-color:#000000;stop-opacity:1;"
         offset="0"
         id="stop5370" />
    </linearGradient>
    <radialGradient
       inkscape:collect="always"
       xlink:href="#linearGradient6462"
       id="radialGradient5781"
       gradientUnits="userSpaceOnUse"
       gradientTransform="matrix(-0.10550598,-0.85579271,2.5196431,-0.31056816,-497.95645,1416.6694)"
       cx="851.29865"
       cy="556.80859"
       fx="851.29865"
       fy="556.80859"
       r="40.000004" />
    <linearGradient
       inkscape:collect="always"
       xlink:href="#linearGradient6425"
       id="linearGradient5779"
       gradientUnits="userSpaceOnUse"
       gradientTransform="matrix(2.3,0,0,2.3,614.14211,-1139.0096)"
       x1="61.786041"
       y1="723.59113"
       x2="61.786041"
       y2="684.24329" />
    <linearGradient
       id="linearGradient6462">
      <stop
         style="stop-color:#191919;stop-opacity:1;"
         offset="0"
         id="stop6464" />
      <stop
         id="stop5687"
         offset="1"
         style="stop-color:#404040;stop-opacity:1;" />
      <stop
         id="stop5679"
         offset="1"
         style="stop-color:#8e8e8e;stop-opacity:1;" />
    </linearGradient>
    <radialGradient
       inkscape:collect="always"
       xlink:href="#linearGradient6462"
       id="radialGradient5685"
       cx="851.29865"
       cy="556.80859"
       fx="851.29865"
       fy="556.80859"
       r="40.000004"
       gradientTransform="matrix(-0.10550598,-0.85579271,2.5196431,-0.31056816,-497.95645,1416.6694)"
       gradientUnits="userSpaceOnUse" />
    <linearGradient
       id="linearGradient6425">
      <stop
         style="stop-color:#000000;stop-opacity:1"
         offset="0"
         id="stop6427" />
      <stop
         style="stop-color:#285cd0;stop-opacity:1;"
         offset="1"
         id="stop6429" />
    </linearGradient>
    <linearGradient
       inkscape:collect="always"
       xlink:href="#linearGradient6425"
       id="linearGradient6474"
       gradientUnits="userSpaceOnUse"
       x1="61.786041"
       y1="723.59113"
       x2="61.786041"
       y2="684.24329"
       gradientTransform="matrix(2.3,0,0,2.3,614.14211,-1139.0096)" />
    <linearGradient
       id="linearGradient6462-3">
      <stop
         style="stop-color:#191919;stop-opacity:1;"
         offset="0"
         id="stop6464-0" />
      <stop
         id="stop5687-3"
         offset="1"
         style="stop-color:#404040;stop-opacity:1;" />
      <stop
         id="stop5679-2"
         offset="1"
         style="stop-color:#0f0f0f;stop-opacity:1;" />
    </linearGradient>
    <linearGradient
       id="linearGradient4671">
      <stop
         style="stop-color:#191919;stop-opacity:1;"
         offset="0"
         id="stop4673" />
      <stop
         id="stop4675"
         offset="1"
         style="stop-color:#404040;stop-opacity:1;" />
      <stop
         id="stop4677"
         offset="1"
         style="stop-color:#0f0f0f;stop-opacity:1;" />
    </linearGradient>
  </defs>
  <metadata
     id="metadata7">
    <rdf:RDF>
      <cc:Work
         rdf:about="">
        <dc:format>image/svg+xml</dc:format>
        <dc:type
           rdf:resource="http://purl.org/dc/dcmitype/StillImage" />
        <dc:title></dc:title>
      </cc:Work>
    </rdf:RDF>
  </metadata>
  <g
     inkscape:label="Слой"
     id="layer4"
     inkscape:groupmode="layer"
     style="display:inline"
     transform="translate(0,20.078857)">
    <path
       style="display:inline;fill:#285cd0;fill-opacity:1;stroke:none;stroke-width:11.09336758;stroke-linecap:butt;stroke-linejoin:miter;stroke-miterlimit:4;stroke-dasharray:none;stroke-opacity:1"
       d="m 1576.7706,299.64062 -157.3028,0.44532 5.8907,83.17187 c -47.2533,3.25296 -94.3435,9.54587 -140.9688,18.87891 l -16.5664,-81.70117 -151.8398,41.04687 26.9941,78.87891 c -44.6376,15.31206 -88.5226,33.56793 -131.3672,54.76953 l -37.0469,-74.71484 -136.3554,79.15234 46.5429,69.17773 c -39.719,26.71473 -77.3995,55.80028 -112.8886,87.01172 l -55.2969,-62.37695 -111.2168,111.79492 63.0508,54.56836 c -31.2464,35.88763 -60.0852,73.69003 -86.3594,113.14844 l -69.6387,-45.89063 -78.26559,136.45117 74.97459,36.48638 c -20.8093,42.5487 -38.9049,86.4765 -54.13475,131.5214 l -79.03906,-26.5039 -40.3711,152.0196 81.80664,16.0625 c -9.05823,46.3135 -15.18878,93.4468 -18.25,141.1523 l -83.22851,-5.2734 0.36914,157.6621 83.18164,-5.7188 c 3.27618,47.7557 9.62461,94.9307 18.91016,141.2715 l -81.66993,16.6992 41.20899,152.2149 78.78516,-27.3184 c 15.45642,45.0035 33.77582,88.8784 54.81052,131.3613 l -74.56443,37.3653 79.03903,136.0058 69.084,-46.6875 c 26.4435,39.2955 55.4371,76.9309 86.832,112.6426 l -62.4707,55.1992 111.4668,110.9707 54.8145,-62.8164 c 35.5791,31.0011 73.3321,59.8793 113.1152,86.3828 l -46.1816,69.4415 136.7265,78.5097 36.6368,-74.8945 c 42.9964,21.041 87.0248,39.1305 131.8008,54.2598 l -26.3731,79.0761 152.4258,40.418 15.7324,-81.8867 c 46.7023,9.1161 93.8593,15.188 141.168,18.2129 l -4.9219,83.2558 157.3027,-0.4453 -5.8906,-83.1738 c 47.2533,-3.253 94.3434,-9.5459 140.9688,-18.8789 l 16.5664,81.7031 151.8398,-41.0488 -26.9941,-78.877 c 44.6376,-15.312 88.5225,-33.568 131.3672,-54.7695 l 37.0468,74.7148 136.3555,-79.1543 -46.541,-69.1757 c 39.7196,-26.7152 77.399,-55.8017 112.8887,-87.0137 l 55.2949,62.3789 111.2168,-111.7949 -63.0489,-54.5703 c 31.2457,-35.8871 60.0838,-73.6889 86.3575,-113.1465 l 69.6386,45.8906 78.2657,-136.4531 -74.9746,-36.4864 c 20.8093,-42.5489 38.9048,-86.4763 54.1347,-131.5214 l 79.0391,26.5058 40.3711,-152.0215 -81.8067,-16.0625 c 9.058,-46.3124 15.1908,-93.4459 18.252,-141.1504 l 83.2285,5.2735 -0.3711,-157.6621 -83.3535,3.2519 c -3.2808,-46.3059 -9.4537,-92.0597 -18.3887,-137.0332 l 81.3203,-18.4726 -41.2089,-152.2129 -78.7832,27.3203 c -15.4566,-45.004 -33.7757,-88.882 -54.8106,-131.3652 l 74.5625,-37.36333 -79.0371,-136.00586 -69.0859,46.6875 c -26.4436,-39.2956 -55.4371,-76.93076 -86.8321,-112.64258 l 62.4727,-55.19922 -111.4688,-110.9707 -54.8144,62.81445 c -35.5789,-31.00072 -73.3306,-59.87751 -113.1133,-86.38086 l 46.1797,-69.4414 -136.7246,-78.50977 -36.6387,74.89453 c -42.9961,-21.04077 -87.0252,-39.13078 -131.8008,-54.25976 l 26.3731,-79.07618 -152.4258,-40.41796 -15.7344,81.88672 c -46.7017,-9.11598 -93.858,-15.18805 -141.166,-18.2129 l 4.9219,-83.25586 z m -75.4746,189.85352 c 171.8897,0 343.7792,44.46148 497.7988,133.38477 308.0387,177.84637 497.7988,506.51999 497.7988,862.21289 0,355.6927 -189.7601,684.3666 -497.7988,862.2129 -308.0391,177.8466 -687.5587,177.8466 -995.5977,0 -308.0394,-177.8463 -497.7988,-506.5202 -497.7988,-862.2129 0,-355.6929 189.7594,-684.36652 497.7988,-862.21289 154.0195,-88.92329 325.9092,-133.38477 497.7989,-133.38477 z"
       id="path4760-8"
       inkscape:connector-curvature="0" />
    <g
       id="g7220"
       style="fill:#285cd0;fill-opacity:1;stroke:none;stroke-opacity:1"
       transform="translate(-538.5556,-8)">
      <g
         id="text3065"
         style="font-style:normal;font-weight:normal;font-size:40px;line-height:125%;font-family:Sans;letter-spacing:75px;word-spacing:50px;fill:#285cd0;fill-opacity:1;stroke:none;stroke-opacity:1"
         transform="matrix(-0.69575765,0.75191694,-0.75191694,-0.69575765,4585.9613,997.3861)">
        <path
           id="path7124"
           style="font-variant:normal;font-weight:bold;font-stretch:normal;font-size:144px;font-family:Arial;-inkscape-font-specification:'Arial Bold';text-align:start;text-anchor:start;fill:#285cd0;fill-opacity:1;stroke:none;stroke-opacity:1"
           d="m 3413.8415,1589.9604 -102.9935,-4.1752 0.843,-20.7954 85.7108,3.4746 1.6348,-40.3263 -85.7109,-3.4746 0.843,-20.7954 102.9936,4.1752 z"
           inkscape:connector-curvature="0"
           sodipodi:nodetypes="ccccccccc" />
        <path
           id="path7126"
           style="font-variant:normal;font-weight:bold;font-stretch:normal;font-size:144px;font-family:Arial;-inkscape-font-specification:'Arial Bold';text-align:start;text-anchor:start;fill:#285cd0;fill-opacity:1;stroke:none;stroke-opacity:1"
           d="m 3401.5882,1699.7032 -13.5195,75.2244 -17.1625,-3.0845 9.838,-54.7401 -22.4912,-4.0422 -9.154,50.9339 -17.0933,-3.072 9.154,-50.934 -27.6123,-4.9625 -10.1863,56.6778 -17.0933,-3.072 13.8678,-77.1622 z"
           inkscape:connector-curvature="0"
           sodipodi:nodetypes="ccccccccccccc" />
        <path
           id="path7128"
           style="font-variant:normal;font-weight:bold;font-stretch:normal;font-size:144px;font-family:Arial;-inkscape-font-specification:'Arial Bold';text-align:start;text-anchor:start;fill:#285cd0;fill-opacity:1;stroke:none;stroke-opacity:1"
           d="m 3361.6175,1880.2378 -10.2402,31.7899 c -3.8805,12.0466 -6.9008,19.7412 -9.0608,23.0837 -3.2833,5.1474 -8.012,8.8197 -14.1861,11.017 -6.1296,2.2115 -13.0984,2.0597 -20.9064,-0.4553 -6.0234,-1.9404 -10.7353,-4.6647 -14.1358,-8.1731 -3.4006,-3.5086 -5.7371,-7.3392 -7.0095,-11.4917 -1.2423,-4.0937 -1.6821,-8.0028 -1.3195,-11.7272 0.5864,-5.0313 2.324,-12.031 5.2129,-20.999 l 4.1607,-12.9167 -37.0101,-11.9217 6.3812,-19.8101 z m -22.9789,14.4637 -27.8412,-8.9682 -3.4925,10.8421 c -2.5151,7.8079 -3.6835,13.1934 -3.5053,16.1565 0.1782,2.9629 1.1234,5.5327 2.8354,7.7094 1.6975,2.2211 3.9964,3.7988 6.8966,4.7331 3.5693,1.1497 6.8518,1.0497 9.8474,-0.2999 2.9956,-1.3497 5.3008,-3.5374 6.9156,-6.5629 1.2079,-2.2211 2.9616,-6.9009 5.2612,-14.0396 l 3.0828,-9.5705"
           inkscape:connector-curvature="0"
           sodipodi:nodetypes="ccccccccccccccccccccccc" />
        <path
           id="path7130"
           style="font-variant:normal;font-weight:bold;font-stretch:normal;font-size:144px;font-family:Arial;-inkscape-font-specification:'Arial Bold';text-align:start;text-anchor:start;fill:#285cd0;fill-opacity:1;stroke:none;stroke-opacity:1"
           d="m 3298.7333,2052.7818 -13.6776,27.9848 -71.3838,-14.0714 55.051,47.4889 -13.7084,28.048 -92.6089,-45.2626 8.4906,-17.3721 72.8995,35.6296 -63.9149,-54.0124 8.7994,-18.0037 81.8531,17.31 -72.8994,-35.6297 8.4906,-17.372 z"
           inkscape:connector-curvature="0"
           sodipodi:nodetypes="cccccccccccccc" />
        <path
           id="path7132"
           style="font-variant:normal;font-weight:bold;font-stretch:normal;font-size:144px;font-family:Arial;-inkscape-font-specification:'Arial Bold';text-align:start;text-anchor:start;fill:#285cd0;fill-opacity:1;stroke:none;stroke-opacity:1"
           d="m 3090.8278,2268.3462 c -7.5263,-8.9157 -11.5087,-17.901 -11.9472,-26.9562 -0.4262,-8.99 2.4899,-18.046 8.7483,-27.168 7.7435,-11.2865 17.954,-17.9245 30.6313,-19.9138 12.7161,-1.9629 25.761,1.6434 39.1348,10.8189 14.1467,9.7059 22.618,20.8899 25.4137,33.5521 2.8344,12.6886 0.1676,24.9854 -8.0001,36.8905 -7.1337,10.3973 -16.0009,16.7347 -26.6018,19.0119 -6.2852,1.3723 -13.4922,0.6912 -21.621,-2.0434 l 7.5966,-19.7722 c 5.0958,2.0181 10.0198,2.2982 14.772,0.8404 4.7256,-1.4193 8.653,-4.4095 11.7822,-8.9704 4.3226,-6.3004 5.5752,-12.9732 3.7578,-20.0184 -1.844,-7.0067 -7.8294,-13.9839 -17.9563,-20.9318 -10.7454,-7.3723 -19.7245,-10.6904 -26.9374,-9.9544 -7.2129,0.736 -12.9408,4.1962 -17.1839,10.3806 -3.1292,4.561 -4.3714,9.4786 -3.7266,14.7531 0.6449,5.2743 3.5882,10.7613 8.83,16.4611 z"
           inkscape:connector-curvature="0"
           sodipodi:nodetypes="ccccccccccccccscccc" />
        <path
           id="path7134"
           style="font-variant:normal;font-weight:bold;font-stretch:normal;font-size:144px;font-family:Arial;-inkscape-font-specification:'Arial Bold';text-align:start;text-anchor:start;fill:#285cd0;fill-opacity:1;stroke:none;stroke-opacity:1"
           d="m 3068.8732,2407.8951 -32.5303,-29.4414 c -2.7664,3.7552 -3.9876,6.8858 -3.6636,9.3919 0.324,2.506 2.5875,7.9686 6.7904,16.3877 5.3778,10.6835 7.6119,18.5536 6.7024,23.6102 -0.878,5.0217 -4.5411,11.0949 -10.9893,18.2197 -0.3146,0.3474 -0.9734,1.1104 -1.9767,2.2889 l -11.4168,-10.3328 2.0337,-2.1424 c 2.8624,-3.1628 4.5544,-5.8357 5.0762,-8.0187 0.5564,-2.1518 0.4442,-4.4029 -0.3367,-6.7533 -0.7809,-2.3507 -2.8542,-6.6612 -6.2199,-12.9315 -1.7921,-3.329 -3.0711,-6.3517 -3.837,-9.0679 -0.7974,-2.6817 -0.7199,-6.1203 0.2325,-10.3161 -4.0871,2.5599 -8.6143,3.6152 -13.5815,3.166 -4.9987,-0.4147 -11.4025,-1.7217 -19.2115,-3.9209 l -30.3933,-8.5407 16.4192,-18.1419 28.0148,8.7588 c 0.4039,0.1126 1.2099,0.3047 2.4182,0.5764 0.4353,0.078 2.2162,0.52 5.3428,1.3267 5.5464,1.416 9.3707,1.9057 11.4729,1.4691 2.0707,-0.402 4.303,-1.8905 6.6969,-4.4656 l -33.4687,-30.2906 13.9658,-15.4311 76.4253,69.1685 z"
           inkscape:connector-curvature="0"
           sodipodi:nodetypes="ccccccccccccccccccccccccccc" />
        <path
           id="path7136"
           style="font-variant:normal;font-weight:bold;font-stretch:normal;font-size:144px;font-family:Arial;-inkscape-font-specification:'Arial Bold';text-align:start;text-anchor:start;fill:#285cd0;fill-opacity:1;stroke:none;stroke-opacity:1"
           d="m 2944.3377,2531.3529 -44.2597,-52.4449 12.3414,79.3816 -15.8517,13.3777 -66.4802,-78.7749 14.8845,-12.5614 43.398,51.424 -11.5334,-78.3154 15.9054,-13.423 66.4802,78.7749 z"
           inkscape:connector-curvature="0"
           sodipodi:nodetypes="ccccccccccc" />
        <path
           id="path7138"
           style="font-variant:normal;font-weight:bold;font-stretch:normal;font-size:144px;font-family:Arial;-inkscape-font-specification:'Arial Bold';text-align:start;text-anchor:start;fill:#285cd0;fill-opacity:1;stroke:none;stroke-opacity:1"
           d="m 2790.4286,2647.4964 -36.4983,-58.1143 1.1295,80.3274 -17.5652,11.0317 -54.8222,-87.2904 16.4935,-10.3587 35.7877,56.983 -0.4786,-79.1587 17.6248,-11.0691 54.8223,87.2904 z m -23.2674,44.9187 c -2.9142,-5.6979 -3.6764,-11.142 -2.2866,-16.3323 1.3751,-5.1259 4.7024,-9.3467 9.9819,-12.6623 5.2795,-3.3159 10.5463,-4.4926 15.8004,-3.5301 5.2393,1.0269 9.7924,4.0902 13.6593,9.1897 l -8.1574,5.1232 c -2.048,-2.644 -4.3866,-4.1643 -7.0159,-4.5609 -2.6045,-0.3571 -5.5342,0.4865 -8.7892,2.5309 -3.2551,2.0442 -5.2873,4.3169 -6.0967,6.8181 -0.7845,2.5406 -0.4306,5.3074 1.0616,8.3004 z"
           inkscape:connector-curvature="0"
           sodipodi:nodetypes="cccccccccccccccccccccc" />
        <path
           id="path7140"
           style="font-variant:normal;font-weight:bold;font-stretch:normal;font-size:144px;font-family:Arial;-inkscape-font-specification:'Arial Bold';text-align:start;text-anchor:start;fill:#285cd0;fill-opacity:1;stroke:none;stroke-opacity:1"
           d="m 2474.4533,2800.4685 -29.8944,8.7493 -37.7003,-62.2282 2.0025,72.676 -29.9619,8.7691 -28.9537,-98.9282 18.5575,-5.4313 22.7916,77.8739 -3.1545,-83.6212 19.2323,-5.6288 42.3614,72.1464 -22.7917,-77.8739 18.5575,-5.4313 z"
           inkscape:connector-curvature="0"
           sodipodi:nodetypes="cccccccccccccc" />
        <path
           id="path7142"
           style="font-variant:normal;font-weight:bold;font-stretch:normal;font-size:144px;font-family:Arial;-inkscape-font-specification:'Arial Bold';text-align:start;text-anchor:start;fill:#285cd0;fill-opacity:1;stroke:none;stroke-opacity:1"
           d="m 2186.4132,2758.6766 12.1299,21.9564 40.8128,-5.6578 5.2121,-24.3605 21.869,-3.0317 -25.6139,107.6147 -21.7994,3.022 -55.0366,-96.4342 z m 21.1311,38.2419 19.3209,35.9373 8.5377,-39.7993 -27.8586,3.862"
           inkscape:connector-curvature="0"
           sodipodi:nodetypes="ccccccccccccc" />
        <path
           id="path7144"
           style="font-variant:normal;font-weight:bold;font-stretch:normal;font-size:144px;font-family:Arial;-inkscape-font-specification:'Arial Bold';text-align:start;text-anchor:start;fill:#285cd0;fill-opacity:1;stroke:none;stroke-opacity:1"
           d="m 2054.8477,2870.4009 1.6043,-85.7662 -29.8072,-0.5576 -1.6044,85.7662 -20.7386,-0.3879 1.6044,-85.7663 -30.7915,-0.576 -1.6044,85.7663 -20.7385,-0.388 1.7886,-103.133 123.024,2.3717 -1.9279,103.0601 z"
           inkscape:connector-curvature="0"
           sodipodi:nodetypes="ccccccccccccc" />
        <path
           id="path7146"
           style="font-variant:normal;font-weight:bold;font-stretch:normal;font-size:144px;font-family:Arial;-inkscape-font-specification:'Arial Bold';text-align:start;text-anchor:start;fill:#285cd0;fill-opacity:1;stroke:none;stroke-opacity:1"
           d="m 1821.2065,2852.5935 11.9468,-67.5771 -53.0747,60.3062 -20.4254,-3.611 17.9446,-101.5041 19.1792,3.3906 -11.7142,66.2616 52.7728,-59.0029 20.4947,3.6232 -17.9447,101.5041 z"
           inkscape:connector-curvature="0"
           sodipodi:nodetypes="ccccccccccc" />
        <path
           id="path7148"
           style="font-variant:normal;font-weight:bold;font-stretch:normal;font-size:144px;font-family:Arial;-inkscape-font-specification:'Arial Bold';text-align:start;text-anchor:start;fill:#285cd0;fill-opacity:1;stroke:none;stroke-opacity:1"
           d="m 1652.1278,2814.8405 -19.7853,-6.4576 12.588,-38.5681 -38.7686,-12.6534 -12.588,38.568 -19.7853,-6.4576 31.9827,-97.9909 19.7853,6.4577 -13.9842,42.8459 38.7685,12.6534 13.9843,-42.8459 19.7853,6.4576 z"
           inkscape:connector-curvature="0"
           sodipodi:nodetypes="ccccccccccccc" />
        <path
           id="path7150"
           style="font-variant:normal;font-weight:bold;font-stretch:normal;font-size:144px;font-family:Arial;-inkscape-font-specification:'Arial Bold';text-align:start;text-anchor:start;fill:#285cd0;fill-opacity:1;stroke:none;stroke-opacity:1"
           d="m 1481.4322,2724.1783 c -4.4282,3.6669 -9.3737,6.4767 -14.8367,8.4292 -5.5048,1.9317 -10.8679,2.7308 -16.0893,2.3973 -6.9616,-0.4099 -14.2029,-2.4746 -21.7242,-6.1941 -13.6135,-6.7327 -22.4077,-16.3374 -26.3825,-28.8141 -4.0165,-12.4976 -2.3053,-26.2675 5.1337,-41.3097 7.3769,-14.9162 17.2083,-24.5918 29.4943,-29.0269 12.2654,-4.393 25.1839,-3.2335 38.7555,3.4783 13.7397,6.795 22.5967,16.3784 26.5709,28.7504 3.9534,12.4139 2.2937,25.974 -4.9792,40.6801 -4.6546,9.4119 -9.9688,16.615 -15.9425,21.6095 z m 0.9419,-57.8944 c -2.1722,-7.7679 -6.9768,-13.4908 -14.414,-17.1688 -7.437,-3.678 -14.8491,-4.023 -22.2361,-1.0349 -7.4497,3.0094 -13.824,9.8713 -19.123,20.5858 -5.2363,10.5883 -6.811,19.6409 -4.7238,27.1576 2.0453,7.4959 6.9125,13.1452 14.6017,16.948 7.6892,3.8026 15.1959,4.2205 22.5201,1.2537 7.3034,-2.9249 13.5838,-9.7026 18.841,-20.3329 5.1742,-10.4624 6.6855,-19.5985 4.5341,-27.4085 z"
           inkscape:connector-curvature="0"
           sodipodi:nodetypes="cccccccccccccccccccc" />
        <path
           id="path7152"
           style="font-variant:normal;font-weight:bold;font-stretch:normal;font-size:144px;font-family:Arial;-inkscape-font-specification:'Arial Bold';text-align:start;text-anchor:start;fill:#285cd0;fill-opacity:1;stroke:none;stroke-opacity:1"
           d="m 1263.1307,2543.0793 c 8.9149,-7.5273 17.8998,-11.5107 26.9549,-11.9502 8.99,-0.4273 18.0463,2.4878 27.169,8.7452 11.2874,7.7422 17.9265,17.9519 19.9173,30.6291 1.9644,12.7158 -1.6405,25.7611 -10.8145,39.1359 -9.7043,14.1479 -20.8874,22.6204 -33.5492,25.4176 -12.6883,2.8358 -24.9854,0.1704 -36.8914,-7.996 -10.3982,-7.1324 -16.7365,-15.999 -19.0149,-26.5996 -1.3731,-6.2851 -0.6928,-13.4922 2.0409,-21.6212 l 19.7731,7.5943 c -2.0175,5.0961 -2.2971,10.0201 -0.8388,14.7721 1.4199,4.7254 4.4105,8.6525 8.9717,11.7812 6.301,4.3219 12.9739,5.5737 20.0189,3.7555 7.0065,-1.8447 13.9831,-7.831 20.9298,-17.9587 7.3711,-10.7462 10.6882,-19.7257 9.9513,-26.9385 -0.7368,-7.2128 -4.1976,-12.9403 -10.3825,-17.1827 -4.5613,-3.1287 -9.4791,-4.3703 -14.7535,-3.7249 -5.2742,0.6454 -10.7609,3.5894 -16.4601,8.8319 z"
           inkscape:connector-curvature="0"
           sodipodi:nodetypes="ccscscccccccccccccc" />
        <path
           id="path7154"
           style="font-variant:normal;font-weight:bold;font-stretch:normal;font-size:144px;font-family:Arial;-inkscape-font-specification:'Arial Bold';text-align:start;text-anchor:start;fill:#285cd0;fill-opacity:1;stroke:none;stroke-opacity:1"
           d="m 1136.7293,2509.1562 22.7059,20.4924 -11.683,12.945 -60.8102,-54.882 11.683,-12.945 22.6538,20.4453 57.3788,-63.5766 15.4505,13.9442 z"
           inkscape:connector-curvature="0"
           sodipodi:nodetypes="ccccccccc" />
        <path
           id="path7156"
           style="font-variant:normal;font-weight:bold;font-stretch:normal;font-size:144px;font-family:Arial;-inkscape-font-specification:'Arial Bold';text-align:start;text-anchor:start;fill:#285cd0;fill-opacity:1;stroke:none;stroke-opacity:1"
           d="m 1016.0488,2414.3809 -21.66956,-25.4143 c -8.21151,-9.6307 -13.1719,-16.243 -14.8812,-19.837 -2.65488,-5.4979 -3.29531,-11.4508 -1.92129,-17.8586 1.33859,-6.3773 5.12887,-12.2272 11.37086,-17.5495 4.81545,-4.1058 9.60903,-6.6838 14.38079,-7.7341 4.7719,-1.0502 9.2587,-1.0259 13.4605,0.073 4.1359,1.0937 7.6931,2.7731 10.6717,5.0383 3.9729,3.1422 9.0159,8.2981 15.1289,15.4676 l 8.8047,10.3262 29.5876,-25.2279 13.5035,15.8372 z m 22.0229,-46.129 -7.3904,-8.6676 c -5.3223,-6.2421 -9.2908,-10.0656 -11.9057,-11.4706 -2.6147,-1.405 -5.2978,-1.9509 -8.0493,-1.6377 -2.7818,0.2775 -5.3319,1.4047 -7.6505,3.3816 -2.8535,2.433 -4.49292,5.2785 -4.91839,8.5365 -0.42527,3.2579 0.22508,6.3687 1.95109,9.3322 1.2553,2.1946 4.316,6.1455 9.182,11.8525 l 6.5237,7.6511 z"
           inkscape:connector-curvature="0"
           sodipodi:nodetypes="ccccccccccccccscccccccc" />
        <path
           id="path7158"
           style="font-variant:normal;font-weight:bold;font-stretch:normal;font-size:144px;font-family:Arial;-inkscape-font-specification:'Arial Bold';text-align:start;text-anchor:start;fill:#285cd0;fill-opacity:1;stroke:none;stroke-opacity:1"
           d="m 948.71816,2245.76 c -8.86086,5.6333 -17.14018,9.036 -24.83797,10.2083 -5.68782,0.8387 -11.37347,0.6762 -17.05697,-0.4875 -5.70847,-1.2033 -10.7084,-3.3014 -14.99979,-6.2945 -5.7396,-3.9608 -10.86026,-9.4816 -15.36198,-16.5624 -8.14804,-12.8167 -10.686,-25.5895 -7.61387,-38.3186 3.04723,-12.7686 11.6516,-23.6545 25.81314,-32.6578 14.04306,-8.9277 27.46693,-12.1017 40.27164,-9.522 12.76528,2.6049 23.20939,10.2959 31.33237,23.073 8.22363,12.9354 10.82629,25.7227 7.80799,38.3619 -3.05782,12.6644 -11.50933,23.3975 -25.35456,32.1996 m -12.09887,-17.7204 c 9.84991,-6.262 15.88026,-13.2897 18.09106,-21.083 2.17133,-7.7682 1.03131,-15.1531 -3.42004,-22.1548 -4.45126,-7.0017 -10.60972,-11.1406 -18.4754,-12.4168 -7.93026,-1.2905 -16.93903,1.2707 -27.02631,7.6835 -9.96844,6.3375 -16.00953,13.2609 -18.12329,20.7702 -2.13869,7.4698 -0.90699,14.8242 3.69511,22.0633 4.6023,7.239 10.80386,11.4894 18.60468,12.7512 7.76144,1.2868 16.64616,-1.251 26.65419,-7.6136"
           inkscape:connector-curvature="0" />
        <path
           id="path7160"
           style="font-variant:normal;font-weight:bold;font-stretch:normal;font-size:144px;font-family:Arial;-inkscape-font-specification:'Arial Bold';text-align:start;text-anchor:start;fill:#285cd0;fill-opacity:1;stroke:none;stroke-opacity:1"
           d="m 793.18018,2077.7487 62.57694,-28.1694 -79.72105,-9.9153 -8.51433,-18.9142 93.99364,-42.3118 7.99481,17.76 -61.35874,27.6211 78.47399,10.3995 8.54319,18.9783 -93.99364,42.3119 z"
           inkscape:connector-curvature="0"
           sodipodi:nodetypes="ccccccccccc" />
        <path
           id="path7162"
           style="font-variant:normal;font-weight:bold;font-stretch:normal;font-size:144px;font-family:Arial;-inkscape-font-specification:'Arial Bold';text-align:start;text-anchor:start;fill:#285cd0;fill-opacity:1;stroke:none;stroke-opacity:1"
           d="m 739.729,1890.1832 8.71388,29.3183 -16.71486,4.968 -23.33715,-78.5194 16.71485,-4.9679 8.69384,29.251 82.09149,-24.3989 5.92944,19.95 z"
           inkscape:connector-curvature="0"
           sodipodi:nodetypes="ccccccccc" />
        <path
           id="path7164"
           style="font-variant:normal;font-weight:bold;font-stretch:normal;font-size:144px;font-family:Arial;-inkscape-font-specification:'Arial Bold';text-align:start;text-anchor:start;fill:#285cd0;fill-opacity:1;stroke:none;stroke-opacity:1"
           d="m 686.00899,1746.3513 -11.98936,-75.4834 17.22162,-2.7354 8.72455,54.9286 22.56865,-3.5846 -8.11791,-51.1094 17.15217,-2.7243 8.11791,51.1093 27.70736,-4.4009 -9.03338,-56.873 17.15218,-2.7243 12.29819,77.4278 z"
           inkscape:connector-curvature="0"
           sodipodi:nodetypes="ccccccccccccc" />
        <path
           id="path7166"
           style="font-variant:normal;font-weight:bold;font-stretch:normal;font-size:144px;font-family:Arial;-inkscape-font-specification:'Arial Bold';text-align:start;text-anchor:start;fill:#285cd0;fill-opacity:1;stroke:none;stroke-opacity:1"
           d="m 662.5378,1482.8946 103.05478,-2.1934 0.44288,20.8078 -85.62124,1.8223 0.65983,31.0008 44.00566,-0.9366 c 12.60655,-0.2683 21.42602,-0.034 26.45844,0.7028 4.98559,0.7378 8.91922,2.7171 11.8009,5.9377 2.83383,3.1748 4.32455,8.2302 4.47217,15.1661 0.0519,2.437 -0.0882,6.8706 -0.42018,13.301 l -16.09792,0.3426 -0.0285,-4.641 c -0.0928,-4.3584 -0.74089,-7.275 -1.94444,-8.7497 -1.20351,-1.4747 -4.10162,-2.1632 -8.69436,-2.0655 l -17.71324,0.4474 -58.83821,1.2523 z"
           inkscape:connector-curvature="0"
           sodipodi:nodetypes="ccccccccccccccccc" />
        <path
           id="path7168"
           style="font-variant:normal;font-weight:bold;font-stretch:normal;font-size:144px;font-family:Arial;-inkscape-font-specification:'Arial Bold';text-align:start;text-anchor:start;fill:#285cd0;fill-opacity:1;stroke:none;stroke-opacity:1"
           d="m 670.23648,1351.1917 40.91828,4.8365 3.26836,-27.6512 c 1.5407,-13.0342 5.70399,-22.1004 12.48991,-27.1985 6.79149,-5.1446 14.44663,-7.2134 22.96543,-6.2066 6.98265,0.8255 12.7088,3.2959 17.17847,7.4114 4.46967,4.1157 7.31936,8.5591 8.54908,13.3301 1.18865,4.7191 1.27677,11.3613 0.26436,19.9266 l -5.71139,48.3199 -102.36552,-12.0996 z m 85.18822,10.0692 2.377,-20.11 c 0.77033,-6.5171 1.00147,-11.0683 0.69342,-13.6536 -0.35458,-2.5907 -1.53354,-4.9958 -3.53691,-7.2151 -1.99783,-2.2657 -4.62603,-3.5912 -7.88461,-3.9764 -4.70162,-0.5557 -8.34722,0.7363 -10.93682,3.8758 -2.58402,3.0931 -4.3575,8.7129 -5.32044,16.8592 l -2.48428,21.0178 27.09264,3.2023"
           inkscape:connector-curvature="0"
           sodipodi:nodetypes="cccccccscccccccccccc" />
        <path
           id="path7170"
           style="font-variant:normal;font-weight:bold;font-stretch:normal;font-size:144px;font-family:Arial;-inkscape-font-specification:'Arial Bold';text-align:start;text-anchor:start;fill:#285cd0;fill-opacity:1;stroke:none;stroke-opacity:1"
           d="m 698.07278,1181.6899 5.31444,-20.1225 39.22537,10.3596 10.41343,-39.4294 -39.22537,-10.3595 5.31443,-20.1226 99.661,26.3209 -5.31444,20.1225 -43.57619,-11.5086 -10.41343,39.4293 43.57619,11.5086 -5.31443,20.1226 z"
           inkscape:connector-curvature="0"
           sodipodi:nodetypes="ccccccccccccc" />
        <path
           id="path7172"
           style="font-variant:normal;font-weight:bold;font-stretch:normal;font-size:144px;font-family:Arial;-inkscape-font-specification:'Arial Bold';text-align:start;text-anchor:start;fill:#285cd0;fill-opacity:1;stroke:none;stroke-opacity:1"
           d="m 763.43253,975.58404 37.7337,16.54889 11.18321,-25.49923 c 2.93703,-6.69668 6.38279,-12.04424 10.33728,-16.04271 3.93044,-4.06003 8.96269,-6.66441 15.09678,-7.81315 6.09117,-1.16736 12.18464,-0.41438 18.28042,2.25894 6.39625,2.80532 11.17824,6.89877 14.34598,12.28036 3.12477,5.36295 4.53471,10.4344 4.22983,15.21435 -0.28611,4.73717 -2.16122,11.05509 -5.62535,18.95377 l -19.54237,44.55924 -94.39864,-41.40043 z m 78.55822,34.45326 8.16148,-18.60924 c 2.59811,-5.924 4.12646,-10.16745 4.58506,-12.73038 0.43448,-2.62455 0.0168,-5.29019 -1.25298,-7.99693 -1.25099,-2.74952 -3.3575,-4.77384 -6.31953,-6.07298 -4.20694,-1.84496 -8.02108,-1.72626 -11.44245,0.3561 -3.40251,2.03959 -6.80761,6.94432 -10.21531,14.71421 l -8.50036,19.38199 24.98409,10.95723 m -47.55024,-105.15565 8.35916,-19.06002 94.39864,41.40044 -8.35916,19.06002 -94.39864,-41.40044"
           inkscape:connector-curvature="0"
           sodipodi:nodetypes="ccccccccsccccccccccccccccc" />
        <path
           id="path7174"
           style="font-variant:normal;font-weight:bold;font-stretch:normal;font-size:144px;font-family:Arial;-inkscape-font-specification:'Arial Bold';text-align:start;text-anchor:start;fill:#285cd0;fill-opacity:1;stroke:none;stroke-opacity:1"
           d="m 867.69746,770.55698 57.85013,36.91548 -35.38313,-72.12345 11.15786,-17.48544 86.89374,55.44887 -10.47704,16.41853 -56.72395,-36.19684 34.29477,71.34554 -11.19567,17.54471 -86.89375,-55.44887 z m 1.81588,-50.55454 c 5.07153,3.90362 8.0893,8.4984 9.05332,13.78435 0.94984,5.22146 -0.2521,10.45989 -3.60582,15.71529 -3.3536,5.25561 -7.6108,8.5722 -12.77164,9.94978 -5.17498,1.31304 -10.60083,0.49195 -16.27756,-2.46327 l 5.18178,-8.12036 c 2.98217,1.5138 5.74637,1.88756 8.29261,1.12128 2.50689,-0.79129 4.79413,-2.8071 6.86172,-6.04745 2.06774,-3.24013 2.93244,-6.1637 2.59409,-8.77072 -0.37772,-2.632 -1.88115,-4.98152 -4.51028,-7.04854 z"
           inkscape:connector-curvature="0"
           sodipodi:nodetypes="cccccccccccccccccccccc" />
        <path
           id="path7176"
           style="font-variant:normal;font-weight:bold;font-stretch:normal;font-size:144px;font-family:Arial;-inkscape-font-specification:'Arial Bold';text-align:start;text-anchor:start;fill:#285cd0;fill-opacity:1;stroke:none;stroke-opacity:1"
           d="m 1103.1472,483.95298 29.5581,32.42424 c 3.1137,-3.47269 4.6294,-6.47185 4.5471,-8.99748 -0.082,-2.52549 -1.8117,-8.17987 -5.1882,-16.96315 -4.3288,-11.14982 -5.7982,-19.19779 -4.4082,-24.14397 1.3554,-4.91436 5.5838,-10.60847 12.6853,-17.08233 0.3464,-0.31566 1.0754,-1.01194 2.187,-2.08883 l 10.3737,11.37966 -2.2297,1.93753 c -3.1524,2.87383 -5.0929,5.37222 -5.8215,7.49518 -0.7602,2.08855 -0.8643,4.34004 -0.3123,6.75449 0.552,2.41467 2.2025,6.90406 4.9516,13.46821 1.4647,3.48546 2.4481,6.61677 2.9501,9.39392 0.5367,2.74574 0.1299,6.16117 -1.2203,10.24629 4.3137,-2.15632 8.9212,-2.77279 13.8224,-1.84943 4.9359,0.89194 11.185,2.80676 18.7472,5.74449 l 29.4346,11.41492 -18.0827,16.48435 -27.0462,-11.40401 c -0.3912,-0.15076 -1.1751,-0.41928 -2.3517,-0.80555 -0.4259,-0.11918 -2.1562,-0.73009 -5.1911,-1.83273 -5.3851,-1.94118 -9.1448,-2.79524 -11.2792,-2.56219 -2.0997,0.2016 -4.4644,1.46927 -7.0941,3.80301 l 30.4108,33.35955 -15.3807,14.02118 -69.4428,-76.17617 z"
           inkscape:connector-curvature="0"
           sodipodi:nodetypes="ccccccccccccccccccccccccccc" />
        <path
           id="path7178"
           style="font-variant:normal;font-weight:bold;font-stretch:normal;font-size:144px;font-family:Arial;-inkscape-font-specification:'Arial Bold';text-align:start;text-anchor:start;fill:#285cd0;fill-opacity:1;stroke:none;stroke-opacity:1"
           d="m 1237.8086,404.98378 c -1.0475,-5.6531 -1.0944,-11.34088 -0.1406,-17.06336 0.9924,-5.74889 2.9051,-10.82265 5.7381,-15.22129 3.7469,-5.88149 9.0755,-11.20187 15.9858,-15.96115 12.5081,-8.61424 25.1789,-11.62058 38.0125,-9.01902 12.8721,2.57522 24.0673,10.7731 33.5857,24.59368 9.4385,13.70497 13.1044,27.00292 10.9977,39.89391 -2.1333,12.8525 -9.4347,23.5726 -21.9042,32.16034 -12.624,8.69414 -25.3068,11.76567 -38.0485,9.21459 -12.7683,-2.58964 -23.8053,-10.64039 -33.1109,-24.15227 -5.9556,-8.64753 -9.6608,-16.796 -11.1156,-24.44543 z m 50.1132,29.0054 c 7.8428,1.88395 15.1808,0.47291 22.0139,-4.23312 6.8331,-4.70595 10.7426,-11.01257 11.7284,-18.91989 0.9978,-7.97238 -1.8933,-16.88078 -8.673,-26.72521 -6.7001,-9.72843 -13.8412,-15.51061 -21.4232,-17.34656 -7.5434,-1.86231 -14.8475,-0.36077 -21.9123,4.50464 -7.0647,4.86562 -11.084,11.21941 -12.0578,19.06138 -1.0003,7.80355 1.8628,16.58884 8.5895,26.35591 6.6203,9.61277 13.8651,15.38038 21.7345,17.30285 z"
           inkscape:connector-curvature="0"
           sodipodi:nodetypes="cccccccscccccccccccc" />
        <path
           id="path7180"
           style="font-variant:normal;font-weight:bold;font-stretch:normal;font-size:144px;font-family:Arial;-inkscape-font-specification:'Arial Bold';text-align:start;text-anchor:start;fill:#285cd0;fill-opacity:1;stroke:none;stroke-opacity:1"
           d="m 1461.2884,243.12911 45.981,92.25428 -18.6271,9.28401 -38.2025,-76.64783 -27.7518,13.83192 19.6345,39.39372 c 5.6247,11.28535 9.1782,19.36067 10.6605,24.22596 1.4612,4.82341 1.3508,9.22553 -0.3313,13.20637 -1.661,3.91802 -5.5961,7.42435 -11.8051,10.51901 -2.1815,1.08732 -6.2506,2.85354 -12.2072,5.29867 l -7.1826,-14.4108 4.1847,-2.00715 c 3.9016,-1.9446 6.2623,-3.77588 7.082,-5.49384 0.8198,-1.71792 0.205,-4.63257 -1.8441,-8.74398 l -7.9669,-15.82681 -26.2524,-52.67178 z"
           inkscape:connector-curvature="0"
           sodipodi:nodetypes="ccccccccccccccccc" />
        <path
           id="path7182"
           style="font-variant:normal;font-weight:bold;font-stretch:normal;font-size:144px;font-family:Arial;-inkscape-font-specification:'Arial Bold';text-align:start;text-anchor:start;fill:#285cd0;fill-opacity:1;stroke:none;stroke-opacity:1"
           d="m 1638.9422,175.34208 32.8278,97.71098 -19.7288,6.62826 -27.2744,-81.18143 -29.3933,9.87521 14.0179,41.72379 c 4.0157,11.95286 6.4224,20.44085 7.2199,25.464 0.7826,4.97877 0.067,9.32366 -2.1481,13.0347 -2.1852,3.6517 -6.5659,6.58225 -13.1422,8.79166 -2.3106,0.77629 -6.5842,1.96486 -12.821,3.56572 l -5.128,-15.26318 4.4214,-1.41127 c 4.1324,-1.38833 6.7229,-2.87679 7.7716,-4.46538 1.0487,-1.58854 0.8416,-4.5601 -0.6214,-8.91469 l -5.7097,-16.77377 -18.7427,-55.78723 z"
           inkscape:connector-curvature="0"
           sodipodi:nodetypes="ccccccccccccccccc" />
        <path
           id="path7184"
           style="font-variant:normal;font-weight:bold;font-stretch:normal;font-size:144px;font-family:Arial;-inkscape-font-specification:'Arial Bold';text-align:start;text-anchor:start;fill:#285cd0;fill-opacity:1;stroke:none;stroke-opacity:1"
           d="m 1745.8512,147.51183 75.0874,-14.2611 3.2537,17.13126 -54.6404,10.37767 4.2639,22.45024 50.8411,-9.65609 3.2406,17.06218 -50.8412,9.65609 5.2348,27.56198 56.5746,-10.74503 3.2406,17.06218 -77.0216,14.62845 z"
           inkscape:connector-curvature="0"
           sodipodi:nodetypes="ccccccccccccc" />
        <path
           id="path7186"
           style="font-variant:normal;font-weight:bold;font-stretch:normal;font-size:144px;font-family:Arial;-inkscape-font-specification:'Arial Bold';text-align:start;text-anchor:start;fill:#285cd0;fill-opacity:1;stroke:none;stroke-opacity:1"
           d="m 2008.4765,116.12036 4.3566,85.67055 9.0587,-0.46066 2.0211,39.74552 -17.2745,0.87846 -1.1427,-22.47096 -64.8147,3.29603 1.1427,22.47096 -17.2746,0.87847 -2.0211,-39.74552 8.7075,-0.4428 c 3.8125,-9.01774 6.1024,-19.36614 6.8696,-31.04521 0.7648,-11.72579 0.6949,-26.48346 -0.2097,-44.27305 l -0.5535,-10.88437 z m -55.4723,88.71304 39.1135,-1.98905 -3.4781,-68.39599 -30.6167,1.55695 c 1.5902,31.27215 -0.083,54.21482 -5.0187,68.82809 z"
           inkscape:connector-curvature="0"
           sodipodi:nodetypes="cccccccccccccccccccc" />
        <path
           id="path7188"
           style="font-variant:normal;font-weight:bold;font-stretch:normal;font-size:144px;font-family:Arial;-inkscape-font-specification:'Arial Bold';text-align:start;text-anchor:start;fill:#285cd0;fill-opacity:1;stroke:none;stroke-opacity:1"
           d="m 2182.2377,167.7612 c 3.4795,0.0642 6.2194,-0.95819 8.2197,-3.06715 2.0002,-2.10885 4.9696,-7.0889 8.9084,-14.94019 5.1691,-10.27229 10.0457,-16.66392 14.63,-19.17489 4.5327,-2.46881 11.7433,-3.21049 21.6319,-2.22506 0.4664,0.0466 1.4715,0.1232 3.0156,0.22987 l -1.5271,15.32253 -3.0016,-0.36981 c -4.1981,-0.4183 -7.33,-0.18871 -9.3959,0.68878 -2.0614,0.831 -3.8054,2.25883 -5.2318,4.28352 -1.4267,2.02482 -3.6618,6.25369 -6.7053,12.68662 -1.6128,3.41948 -3.284,6.24423 -5.0136,8.47426 -1.6831,2.23478 -4.495,4.21569 -8.4356,5.94272 4.4829,1.81294 8.0194,4.8505 10.6095,9.11272 2.6413,4.22028 5.3975,10.12428 8.2686,17.71201 l 11.1901,29.52089 -24.3482,-2.42661 -9.6712,-27.74432 c -0.1028,-0.38708 -0.4272,-1.14958 -0.9732,-2.28749 -0.3036,-0.73683 -0.9828,-2.42972 -2.0377,-5.07867 -2.124,-5.15791 -3.9582,-8.49689 -5.5025,-10.01695 -1.5444,-1.51999 -3.5527,-2.40319 -6.0247,-2.64961 l -4.4767,44.9181 -20.2201,-2.01521 4.4767,-44.91809 c -2.3789,-0.23704 -4.4963,0.21143 -6.3523,1.34542 -1.856,1.13406 -4.3154,4.06869 -7.3782,8.80387 -1.7249,2.65456 -2.7482,4.17777 -3.0699,4.56965 -0.4895,0.65784 -0.9581,1.34131 -1.4056,2.0504 l -14.9567,25.28982 -24.3482,-2.42662 16.7964,-26.73168 c 4.1443,-6.6059 7.9346,-11.7868 11.3709,-15.54269 3.4875,-3.79781 7.6542,-6.13831 12.5001,-7.02152 -3.5223,-2.47082 -5.9136,-4.94673 -7.1737,-7.42774 -1.2089,-2.52289 -2.2874,-5.64523 -3.2355,-9.36704 -1.6814,-6.76251 -3.0192,-11.30036 -4.0134,-13.61357 -0.9477,-2.3084 -2.3708,-4.09899 -4.2696,-5.37177 -1.8521,-1.26797 -5.0171,-2.12513 -9.4949,-2.5715 -0.5597,-0.0557 -1.4483,-0.12069 -2.6657,-0.195 l 1.5271,-15.32253 c 1.5346,0.20015 2.5351,0.32342 3.0016,0.3698 10.0284,0.99957 17.0185,3.1801 20.9702,6.5416 3.9004,3.40368 7.352,10.60178 10.3548,21.5943 2.3536,8.5255 4.2794,14.01699 5.7775,16.47449 1.5493,2.41561 4.0359,3.93532 7.4597,4.55913 l 4.3511,-43.65871 20.2202,2.01521 z"
           inkscape:connector-curvature="0"
           sodipodi:nodetypes="ccccccccccccccccccccccccccccccccccccccccccccccccc" />
        <path
           id="path7190"
           style="font-variant:normal;font-weight:bold;font-stretch:normal;font-size:144px;font-family:Arial;-inkscape-font-specification:'Arial Bold';text-align:start;text-anchor:start;fill:#285cd0;fill-opacity:1;stroke:none;stroke-opacity:1"
           d="m 2799.5259,391.90502 c 4.9526,-1.13055 9.9244,-2.04591 14.9155,-2.7461 1.9996,-0.30071 3.261,-0.49482 3.7841,-0.58233 -0.8451,-0.83322 -3.1242,-3.40943 -6.8373,-7.72866 -2.6718,-3.11541 -4.3866,-5.23148 -5.1446,-6.34821 l 10.5645,-7.66433 c 3.5557,5.58897 6.4275,11.00658 8.6155,16.25285 3.5218,-6.87313 6.6849,-12.27487 9.4892,-16.20524 l 10.1882,7.26916 c -1.9875,2.78561 -6.1508,7.53126 -12.49,14.23697 0.9809,0.23929 3.1526,0.6659 6.5151,1.27981 4.5504,0.88584 8.6704,1.81 12.3601,2.77249 l -4.3581,12.52436 c -4.9163,-2.06802 -10.4866,-4.63159 -16.7111,-7.69072 l 1.3554,12.62759 c 0.2574,2.54462 0.4328,4.59884 0.5264,6.16266 l -12.882,-0.46724 1.3799,-18.27704 c -5.2681,2.46039 -11.0701,4.94281 -17.406,7.44727 z"
           inkscape:connector-curvature="0"
           sodipodi:nodetypes="cccccccccccccccccccc" />
        <path
           id="path7192"
           style="font-variant:normal;font-weight:bold;font-stretch:normal;font-size:144px;font-family:Arial;-inkscape-font-specification:'Arial Bold';text-align:start;text-anchor:start;fill:#285cd0;fill-opacity:1;stroke:none;stroke-opacity:1"
           d="m 2908.5591,475.68788 c 5.0425,-0.61561 10.0821,-1.01519 15.1187,-1.19876 2.0199,-0.0936 3.2946,-0.15709 3.8239,-0.19038 -0.755,-0.91565 -2.7573,-3.71244 -6.0068,-8.39037 -2.3375,-3.37349 -3.8258,-5.65458 -4.465,-6.84329 l 11.2961,-6.53808 c 2.9626,5.92478 5.2625,11.60883 6.8997,17.05217 4.2095,-6.47482 7.911,-11.5229 11.1043,-15.14428 l 9.3873,8.27767 c -2.2633,2.56662 -6.8923,6.8593 -13.8869,12.87806 0.9511,0.33883 3.0674,0.98635 6.349,1.94256 4.4353,1.34877 8.4385,2.69144 12.0097,4.028 l -5.6221,12.01019 c -4.6777,-2.56229 -9.9551,-5.68473 -15.8322,-9.36733 l 0.05,12.70002 c -0.01,2.55761 -0.042,4.61898 -0.1097,6.18413 l -12.7657,-1.78858 3.2507,-18.03848 c -5.493,1.90598 -11.5193,3.77902 -18.0789,5.61911 z"
           inkscape:connector-curvature="0"
           sodipodi:nodetypes="cccccccccccccccccccc" />
        <path
           id="path7194"
           style="font-variant:normal;font-weight:bold;font-stretch:normal;font-size:144px;font-family:Arial;-inkscape-font-specification:'Arial Bold';text-align:start;text-anchor:start;fill:#285cd0;fill-opacity:1;stroke:none;stroke-opacity:1"
           d="m 3008.4031,570.23477 c 5.0791,-0.0941 10.1331,0.0264 15.1619,0.36145 2.0188,0.11447 3.2932,0.18235 3.8232,0.20364 -0.6569,-0.9884 -2.3611,-3.97617 -5.1127,-8.96331 -1.9784,-3.59586 -3.2244,-6.01784 -3.738,-7.26595 l 11.9083,-5.34247 c 2.3379,6.19789 4.0415,12.08822 5.1106,17.671 4.8527,-6.00789 9.0533,-10.64882 12.6019,-13.92281 l 8.4869,9.19863 c -2.5151,2.32041 -7.5608,6.11461 -15.137,11.3826 0.9112,0.43479 2.9498,1.29639 6.1158,2.58481 4.2732,1.79748 8.1172,3.54447 11.5321,5.24099 l -6.8267,11.36877 c -4.3896,-3.02948 -9.3181,-6.67778 -14.7856,-10.94491 l -1.2551,12.63796 c -0.2683,2.54349 -0.5165,4.59019 -0.7447,6.1401 l -12.5143,-3.09114 5.0875,-17.60885 c -5.6598,1.33134 -11.8467,2.57508 -18.5609,3.73124 z"
           inkscape:connector-curvature="0"
           sodipodi:nodetypes="cccccccccccccccccccc" />
        <path
           id="path7196"
           style="font-variant:normal;font-weight:bold;font-stretch:normal;font-size:144px;font-family:Arial;-inkscape-font-specification:'Arial Bold';text-align:start;text-anchor:start;fill:#285cd0;fill-opacity:1;stroke:none;stroke-opacity:1"
           d="m 3098.0003,674.5335 c 5.0619,0.42782 10.0768,1.0665 15.0446,1.91603 1.9964,0.32112 3.2571,0.51947 3.7821,0.59505 -0.552,-1.05062 -1.9405,-4.19755 -4.1655,-9.44082 -1.5988,-3.77995 -2.5896,-6.31705 -2.9724,-7.61129 l 12.3939,-4.09176 c 1.6893,6.40515 2.7791,12.43924 3.2695,18.10228 5.4438,-5.47798 10.0987,-9.66316 13.9646,-12.55555 l 7.4977,10.02127 c -2.74,2.04996 -8.1485,5.30613 -16.2255,9.76853 0.8618,0.52604 2.8012,1.59237 5.8181,3.199 4.0661,2.22665 7.7105,4.35904 10.9332,6.39716 l -7.9577,10.60789 c -4.0554,-3.46411 -8.5834,-7.59909 -13.584,-12.40496 l -2.5458,12.44234 c -0.528,2.50252 -0.985,4.51292 -1.3711,6.03122 l -12.1308,-4.35951 6.8683,-16.99354 c -5.7666,0.74328 -12.0485,1.34531 -18.8459,1.80609 z"
           inkscape:connector-curvature="0"
           sodipodi:nodetypes="cccccccccccccccccccc" />
        <path
           id="path7198"
           style="font-variant:normal;font-weight:bold;font-stretch:normal;font-size:144px;font-family:Arial;-inkscape-font-specification:'Arial Bold';text-align:start;text-anchor:start;fill:#285cd0;fill-opacity:1;stroke:none;stroke-opacity:1"
           d="m 3176.4178,787.47008 c 4.9914,0.94468 9.9144,2.09427 14.7689,3.44877 1.9529,0.52416 3.1867,0.85075 3.7011,0.97977 -0.4413,-1.10168 -1.4998,-4.37442 -3.1754,-9.81822 -1.2027,-3.92398 -1.9281,-6.5493 -2.1761,-7.87598 l 12.7481,-2.79919 c 1.0236,6.54462 1.4888,12.65865 1.3958,18.34212 5.9769,-4.89083 11.0365,-8.57658 15.1787,-11.05727 l 6.4304,10.73733 c -2.9358,1.75816 -8.6497,4.44252 -17.1417,8.05309 0.8033,0.61164 2.6231,1.87123 5.4594,3.77878 3.8163,2.63189 7.2228,5.12677 10.2195,7.48464 l -9.0036,9.7359 c -3.6788,-3.86174 -7.7589,-8.43926 -12.2402,-13.7326 l -3.8084,12.11567 c -0.7818,2.43517 -1.4426,4.38811 -1.9824,5.85881 l -11.6198,-5.58054 8.5748,-16.1996 c -5.8124,0.14799 -12.1229,0.10263 -18.9317,-0.13609 z"
           inkscape:connector-curvature="0"
           sodipodi:nodetypes="cccccccccccccccccccc" />
      </g>
    </g>
    <path
       style="color:#000000;font-style:normal;font-variant:normal;font-weight:normal;font-stretch:normal;font-size:medium;line-height:normal;font-family:sans-serif;text-indent:0;text-align:start;text-decoration:none;text-decoration-line:none;text-decoration-style:solid;text-decoration-color:#000000;letter-spacing:normal;word-spacing:normal;text-transform:none;direction:ltr;writing-mode:lr-tb;baseline-shift:baseline;text-anchor:start;white-space:normal;clip-rule:nonzero;display:inline;overflow:visible;visibility:visible;opacity:1;isolation:auto;mix-blend-mode:normal;color-interpolation:sRGB;color-interpolation-filters:linearRGB;solid-color:#000000;solid-opacity:1;fill:#285cd0;fill-opacity:1;fill-rule:nonzero;stroke:none;stroke-width:20;stroke-linecap:butt;stroke-linejoin:miter;stroke-miterlimit:4;stroke-dasharray:none;stroke-dashoffset:0;stroke-opacity:1;color-rendering:auto;image-rendering:auto;shape-rendering:auto;text-rendering:auto;enable-background:accumulate"
       d="m 1501.296,526.91211 c -165.4348,0 -330.8702,42.78944 -479.0957,128.36719 -296.4496,171.15488 -479.0938,487.5019 -479.0938,829.8125 0,103.6139 16.7339,204.8489 48.2927,300.3985 72.7027,220.1204 224.0833,410.0677 430.8011,529.4159 296.4509,171.1554 661.7384,171.1553 958.1894,0 296.4494,-171.1547 479.0938,-487.5024 479.0938,-829.8144 0,-342.3106 -182.6444,-658.65761 -479.0938,-829.8125 -148.2255,-85.57775 -313.659,-128.36719 -479.0937,-128.36719 z m 0,19.98828 c 161.9748,0 323.9483,41.89978 469.0937,125.69922 290.2891,167.59825 469.0938,477.29479 469.0938,812.49219 0,255.5272 -103.9135,496.2296 -281.9063,670.4648 l -597.9512,0 120,-120 -121.7089,0.9629 -118.2911,118.291 0,1.4922 119.2539,119.2539 447.7403,0 c -11.8757,7.5895 -23.9507,14.9396 -36.2305,22.0293 -290.2908,167.5985 -647.8986,167.5985 -938.1894,0 -68.9973,-39.8354 -131.6906,-87.7039 -187.1875,-142.0293 l 474.6132,0 0,120 120,0 0,-119.2539 -0.7461,-0.7461 0.7461,-0.7461 0,-121.1191 -698.8691,0.75 C 627.1354,1877.1089 563.1065,1685.6681 563.1065,1485.0918 c 0,-335.1974 178.8045,-644.89394 469.0938,-812.49219 145.1454,-83.79944 307.1208,-125.69922 469.0957,-125.69922 z"
       id="path4760-9"
       inkscape:connector-curvature="0"
       sodipodi:nodetypes="ssssssssssssccccccccsscccccccccsss" />
    <g
       id="g6016"
       transform="translate(-530.956,12.499243)"
       style="fill:#285cd0;stroke:none">
      <path
         style="color:#000000;font-style:normal;font-variant:normal;font-weight:normal;font-stretch:normal;font-size:medium;line-height:normal;font-family:sans-serif;text-indent:0;text-align:start;text-decoration:none;text-decoration-line:none;text-decoration-style:solid;text-decoration-color:#000000;letter-spacing:normal;word-spacing:normal;text-transform:none;direction:ltr;writing-mode:lr-tb;baseline-shift:baseline;text-anchor:start;white-space:normal;clip-rule:nonzero;display:inline;overflow:visible;visibility:visible;opacity:1;isolation:auto;mix-blend-mode:normal;color-interpolation:sRGB;color-interpolation-filters:linearRGB;solid-color:#000000;solid-opacity:1;fill:#285cd0;fill-opacity:1;fill-rule:evenodd;stroke:none;stroke-width:20;stroke-linecap:butt;stroke-linejoin:miter;stroke-miterlimit:4;stroke-dasharray:none;stroke-dashoffset:0;stroke-opacity:1;color-rendering:auto;image-rendering:auto;shape-rendering:auto;text-rendering:auto;enable-background:accumulate"
         d="m 1760,1219.9219 0,100 -260,0.25 0,340.75 101,0 0,-260 159,0 0,260 121,0 0,-278.3828 99.1914,198.3828 80.6465,0 79.1621,-197.9024 0,277.9024 121,0 0,-139.4785 179.3281,139.4785 161.6719,0 -240.6348,-180.4766 240.7871,-160.5234 -161.8046,0 -179.3477,119.5664 0,-219.5664 -120.7832,0 -119.75,199.5801 -139.707,-199.5801 -120.7598,0 z"
         transform="translate(-7.5996,-20.499243)"
         id="path5829-6"
         clip-path="none"
         inkscape:connector-curvature="0" />
    </g>
    <path
       style="color:#000000;display:inline;overflow:visible;visibility:visible;opacity:1;fill:#285cd0;fill-opacity:1;fill-rule:nonzero;stroke:none;stroke-width:6;stroke-linecap:round;stroke-linejoin:round;stroke-miterlimit:4;stroke-dasharray:none;stroke-dashoffset:0;stroke-opacity:1;marker:none;enable-background:accumulate"
       d="m 858.1884,921.1816 c -47.0201,0 -84.8731,40.4817 -84.8731,90.7676 l 0,854.7403 c 0,50.2859 37.853,90.7675 84.8731,90.7675 l 1297.8633,0 c 47.0201,0 84.873,-40.4816 84.873,-90.7675 l 0,-854.7403 c 0,-50.2859 -37.8529,-90.7676 -84.873,-90.7676 l -1297.8633,0 z m 39.7363,56.459 1214.5684,0 0,923.3574 -1214.5684,0 0,-923.3574 z m 1275.666,408.7051 a 36.062447,33.23402 0 0 1 36.0625,33.2324 36.062447,33.23402 0 0 1 -36.0625,33.2344 36.062447,33.23402 0 0 1 -36.0625,-33.2344 36.062447,33.23402 0 0 1 36.0625,-33.2324 z m -1337.6074,17.6484 a 16.326978,15.908338 0 0 1 16.3262,15.9082 16.326978,15.908338 0 0 1 -16.3262,15.9082 16.326978,15.908338 0 0 1 -16.3281,-15.9082 16.326978,15.908338 0 0 1 16.3281,-15.9082 z"
       id="rect5769"
       inkscape:connector-curvature="0" />
    <circle
       style="fill:none;fill-opacity:1;stroke:#285cd0;stroke-width:10;stroke-miterlimit:4;stroke-dasharray:none;stroke-opacity:1"
       id="path4272"
       cx="1501.4438"
       cy="1483.9211"
       r="1280" />
  </g>
</svg>
